<svg xmlns="http://www.w3.org/2000/svg" viewBox="0 0 24 24" id="RelianceIndustriesLtd">
  <path fill="#d8a353" fill-rule="evenodd" d="M19.195 21.863a2.802 2.802 0 0 1-1.648.536c-1.936 0-1.587-1.2-6.349-5.946l-.015-.015c.202.036.407.054.612.054 1.957 0 3.792-1.536 3.792-3.702 0-2.303-1.802-3.564-4.065-3.564-3.052 0-6.006 2.743-6.006 7.571 0 2.059.649 5.03 1.888 6.629C2.94 21.506 0 17.326 0 12.361 0 6.952 3.643 2.654 7.785 1.262 9.044.751 10.486.5 11.951.5c7.118 0 12.02 5.75 12.043 11.385.12 3.975-1.647 7.626-4.799 9.978z" clip-rule="evenodd" class="color4caf50 svgShape"></path>
  <path fill="#d8a353" fill-rule="evenodd" d="M9.233 23.38c-1.007-1.073-1.864-2.388-1.864-3.795 0-1.633 1.349-2.729 1.94-5.986.158 2.28 1.864 4.106 1.864 6.129 0 1.294-.708 2.589-1.834 3.773l-.106-.121z" clip-rule="evenodd" class="color4caf50 svgShape"></path>
</svg>
